<svg width="800" height="600" viewBox="0 0 800 600" fill="none" xmlns="http://www.w3.org/2000/svg">
  <defs>
    <linearGradient id="g" x1="160" y1="120" x2="640" y2="520" gradientUnits="userSpaceOnUse">
      <stop stop-color="#22c55e" stop-opacity="0.18"/>
      <stop offset="1" stop-color="#22c55e" stop-opacity="0"/>
    </linearGradient>
  </defs>
  <rect x="120" y="90" width="560" height="420" rx="28" fill="#0a0a0b" stroke="rgba(255,255,255,0.08)"/>
  <rect x="140" y="112" width="520" height="376" rx="22" fill="url(#g)"/>
  <g>
    <rect x="210" y="180" width="380" height="70" rx="18" fill="rgba(255,255,255,0.04)" stroke="rgba(255,255,255,0.10)"/>
    <circle cx="250" cy="215" r="16" fill="rgba(34,197,94,0.22)"/>
    <text x="245" y="221" font-family="Inter, system-ui" font-size="14" fill="#22c55e">1</text>
    <rect x="280" y="206" width="260" height="14" rx="7" fill="rgba(255,255,255,0.10)"/>

    <rect x="210" y="270" width="380" height="70" rx="18" fill="rgba(255,255,255,0.03)" stroke="rgba(255,255,255,0.10)"/>
    <circle cx="250" cy="305" r="16" fill="rgba(34,197,94,0.18)"/>
    <text x="245" y="311" font-family="Inter, system-ui" font-size="14" fill="#22c55e">2</text>
    <rect x="280" y="296" width="240" height="14" rx="7" fill="rgba(255,255,255,0.08)"/>

    <rect x="210" y="360" width="380" height="70" rx="18" fill="rgba(255,255,255,0.02)" stroke="rgba(255,255,255,0.10)"/>
    <circle cx="250" cy="395" r="16" fill="rgba(34,197,94,0.14)"/>
    <text x="245" y="401" font-family="Inter, system-ui" font-size="14" fill="#22c55e">3</text>
    <rect x="280" y="386" width="220" height="14" rx="7" fill="rgba(255,255,255,0.06)"/>
  </g>
</svg>
