<svg width="800" height="600" viewBox="0 0 800 600" fill="none" xmlns="http://www.w3.org/2000/svg">
  <defs>
    <linearGradient id="g" x1="140" y1="120" x2="660" y2="520" gradientUnits="userSpaceOnUse">
      <stop stop-color="#22c55e" stop-opacity="0.18"/>
      <stop offset="1" stop-color="#22c55e" stop-opacity="0"/>
    </linearGradient>
    <filter id="s" x="0" y="0" width="200%" height="200%">
      <feDropShadow dx="0" dy="18" stdDeviation="22" flood-color="#22c55e" flood-opacity="0.10"/>
    </filter>
  </defs>
  <rect x="80" y="70" width="640" height="460" rx="28" fill="#0a0a0b" stroke="rgba(255,255,255,0.08)"/>
  <rect x="100" y="92" width="600" height="416" rx="22" fill="url(#g)"/>
  <g filter="url(#s)">
    <rect x="180" y="170" width="440" height="84" rx="18" fill="rgba(255,255,255,0.04)" stroke="rgba(255,255,255,0.08)"/>
    <rect x="180" y="270" width="300" height="16" rx="8" fill="rgba(255,255,255,0.10)"/>
    <rect x="180" y="302" width="380" height="16" rx="8" fill="rgba(255,255,255,0.08)"/>
    <rect x="180" y="334" width="260" height="16" rx="8" fill="rgba(255,255,255,0.06)"/>
    <circle cx="580" cy="212" r="18" fill="rgba(34,197,94,0.20)"/>
    <path d="M574 212l5 5 10-14" stroke="#22c55e" stroke-width="3" stroke-linecap="round" stroke-linejoin="round"/>
  </g>
  <path d="M170 470c70-52 142-78 230-78 88 0 160 26 230 78" stroke="rgba(34,197,94,0.28)" stroke-width="2" stroke-linecap="round"/>
  <path d="M210 456c55-39 115-58 190-58 75 0 135 19 190 58" stroke="rgba(226,232,240,0.10)" stroke-width="2" stroke-linecap="round"/>
  <circle cx="400" cy="126" r="6" fill="rgba(34,197,94,0.45)"/>
  <circle cx="360" cy="140" r="3" fill="rgba(226,232,240,0.20)"/>
  <circle cx="440" cy="140" r="3" fill="rgba(226,232,240,0.20)"/>
</svg>
